<?xml version="1.0" encoding="UTF-8" standalone="no"?>
<svg
   class="svglite"
   width="475.20pt"
   height="576.00pt"
   viewBox="0 0 475.20 576.00"
   version="1.1"
   id="svg388"
   sodipodi:docname="fertilized-1labels.svg"
   inkscape:export-filename="/home/john/MyDocs/MEGA/UCI/Schiedea/Analysis/HybridSeeds/schiedea-rims/figures-comp/fertilized-1labels.png"
   inkscape:export-xdpi="150"
   inkscape:export-ydpi="150"
   inkscape:version="1.1.2 (0a00cf5339, 2022-02-04)"
   xmlns:inkscape="http://www.inkscape.org/namespaces/inkscape"
   xmlns:sodipodi="http://sodipodi.sourceforge.net/DTD/sodipodi-0.dtd"
   xmlns="http://www.w3.org/2000/svg"
   xmlns:svg="http://www.w3.org/2000/svg">
  <sodipodi:namedview
     id="namedview390"
     pagecolor="#ffffff"
     bordercolor="#666666"
     borderopacity="1.0"
     inkscape:pageshadow="2"
     inkscape:pageopacity="0.0"
     inkscape:pagecheckerboard="0"
     inkscape:document-units="pt"
     showgrid="false"
     inkscape:zoom="0.74393526"
     inkscape:cx="296.39676"
     inkscape:cy="254.05437"
     inkscape:window-width="1920"
     inkscape:window-height="1053"
     inkscape:window-x="0"
     inkscape:window-y="0"
     inkscape:window-maximized="1"
     inkscape:current-layer="svg388" />
  <defs
     id="defs4">
    <style
       type="text/css"
       id="style2"><![CDATA[
    .svglite line, .svglite polyline, .svglite polygon, .svglite path, .svglite rect, .svglite circle {
      fill: none;
      stroke: #000000;
      stroke-linecap: round;
      stroke-linejoin: round;
      stroke-miterlimit: 10.00;
    }
    .svglite text {
      white-space: pre;
    }
  ]]></style>
  </defs>
  <rect
     width="100%"
     height="100%"
     style="stroke: none; fill: #FFFFFF;"
     id="rect6" />
  <defs
     id="defs11">
    <clipPath
       id="cpMC4wMHw0NzUuMjB8MC4wMHw1NzYuMDA=">
      <rect
         x="0.00"
         y="0.00"
         width="475.20"
         height="576.00"
         id="rect8" />
    </clipPath>
  </defs>
  <g
     clip-path="url(#cpMC4wMHw0NzUuMjB8MC4wMHw1NzYuMDA=)"
     id="g13" />
  <defs
     id="defs18">
    <clipPath
       id="cpNTYuODJ8MjU2LjA3fDY3LjQ0fDIxOS4zNg==">
      <rect
         x="56.82"
         y="67.44"
         width="199.25"
         height="151.92"
         id="rect15" />
    </clipPath>
  </defs>
  <g
     clip-path="url(#cpNTYuODJ8MjU2LjA3fDY3LjQ0fDIxOS4zNg==)"
     id="g46">
    <rect
       x="56.82"
       y="67.44"
       width="199.25"
       height="151.92"
       style="stroke-width: 1.07; fill: #FFFFFF;"
       id="rect20" />
    <line
       x1="56.82"
       y1="155.39"
       x2="256.07"
       y2="155.39"
       style="stroke-width: 1.07; stroke-dasharray: 5.69,5.69; stroke-linecap: butt;"
       id="line22" />
    <polyline
       points="65.88,197.63 68.17,196.33 70.47,195.03 72.76,193.73 75.05,192.43 77.34,191.13 79.64,189.83 81.93,188.54 84.22,187.24 86.52,185.94 88.81,184.64 91.10,183.34 93.39,182.04 95.69,180.74 97.98,179.44 100.27,178.14 102.57,176.84 104.86,175.55 107.15,174.25 109.44,172.95 111.74,171.65 114.03,170.35 116.32,169.05 118.62,167.75 120.91,166.45 123.20,165.15 125.49,163.86 127.79,162.56 130.08,161.26 132.37,159.96 134.67,158.66 136.96,157.36 139.25,156.06 141.54,154.76 143.84,153.46 146.13,152.17 148.42,150.87 150.72,149.57 153.01,148.27 155.30,146.97 157.59,145.67 159.89,144.37 162.18,143.07 164.47,141.77 166.77,140.47 169.06,139.18 171.35,137.88 173.64,136.58 175.94,135.28 178.23,133.98 180.52,132.68 182.82,131.38 185.11,130.08 187.40,128.78 189.69,127.49 191.99,126.19 194.28,124.89 196.57,123.59 198.87,122.29 201.16,120.99 203.45,119.69 205.74,118.39 208.04,117.09 210.33,115.80 212.62,114.50 214.92,113.20 217.21,111.90 219.50,110.60 221.79,109.30 224.09,108.00 226.38,106.70 228.67,105.40 230.97,104.11 233.26,102.81 235.55,101.51 237.84,100.21 240.14,98.91 242.43,97.61 244.72,96.31 247.02,95.01 "
       style="stroke-width: 2.13; stroke: #BEBEBE; stroke-linecap: butt;"
       id="polyline24" />
    <circle
       cx="65.88"
       cy="212.45"
       r="4.62"
       style="stroke-width: 0.71; stroke: #A6CEE3; fill: #A6CEE3;"
       id="circle26" />
    <circle
       cx="65.88"
       cy="201.74"
       r="4.62"
       style="stroke-width: 0.71; stroke: #1F78B4; fill: #1F78B4;"
       id="circle28" />
    <circle
       cx="68.71"
       cy="172.83"
       r="4.62"
       style="stroke-width: 0.71; stroke: #B2DF8A; fill: #B2DF8A;"
       id="circle30" />
    <circle
       cx="68.71"
       cy="193.28"
       r="4.62"
       style="stroke-width: 0.71; stroke: #33A02C; fill: #33A02C;"
       id="circle32" />
    <circle
       cx="130.47"
       cy="138.73"
       r="4.62"
       style="stroke-width: 0.71; stroke: #FB9A99; fill: #FB9A99;"
       id="circle34" />
    <circle
       cx="130.47"
       cy="194.65"
       r="4.62"
       style="stroke-width: 0.71; stroke: #E31A1C; fill: #E31A1C;"
       id="circle36" />
    <circle
       cx="243.68"
       cy="74.34"
       r="4.62"
       style="stroke-width: 0.71; stroke: #FDBF6F; fill: #FDBF6F;"
       id="circle38" />
    <circle
       cx="243.68"
       cy="82.65"
       r="4.62"
       style="stroke-width: 0.71; stroke: #FF7F00; fill: #FF7F00;"
       id="circle40" />
    <circle
       cx="247.02"
       cy="96.16"
       r="4.62"
       style="stroke-width: 0.71; stroke: #CAB2D6; fill: #CAB2D6;"
       id="circle42" />
    <circle
       cx="247.02"
       cy="126.38"
       r="4.62"
       style="stroke-width: 0.71; stroke: #6A3D9A; fill: #6A3D9A;"
       id="circle44" />
  </g>
  <g
     clip-path="url(#cpMC4wMHw0NzUuMjB8MC4wMHw1NzYuMDA=)"
     id="g48" />
  <defs
     id="defs53">
    <clipPath
       id="cpNTYuODJ8MjU2LjA3fDIyNi41NnwzNzguNDg=">
      <rect
         x="56.82"
         y="226.56"
         width="199.25"
         height="151.92"
         id="rect50" />
    </clipPath>
  </defs>
  <g
     clip-path="url(#cpNTYuODJ8MjU2LjA3fDIyNi41NnwzNzguNDg=)"
     id="g81">
    <rect
       x="56.82"
       y="226.56"
       width="199.25"
       height="151.92"
       style="stroke-width: 1.07; fill: #FFFFFF;"
       id="rect55" />
    <line
       x1="56.82"
       y1="256.48"
       x2="256.07"
       y2="256.48"
       style="stroke-width: 1.07; stroke-dasharray: 5.69,5.69; stroke-linecap: butt;"
       id="line57" />
    <polyline
       points="65.88,284.42 68.17,285.17 70.47,285.92 72.76,286.68 75.05,287.43 77.34,288.18 79.64,288.93 81.93,289.69 84.22,290.44 86.52,291.19 88.81,291.94 91.10,292.70 93.39,293.45 95.69,294.20 97.98,294.96 100.27,295.71 102.57,296.46 104.86,297.21 107.15,297.97 109.44,298.72 111.74,299.47 114.03,300.22 116.32,300.98 118.62,301.73 120.91,302.48 123.20,303.24 125.49,303.99 127.79,304.74 130.08,305.49 132.37,306.25 134.67,307.00 136.96,307.75 139.25,308.50 141.54,309.26 143.84,310.01 146.13,310.76 148.42,311.52 150.72,312.27 153.01,313.02 155.30,313.77 157.59,314.53 159.89,315.28 162.18,316.03 164.47,316.78 166.77,317.54 169.06,318.29 171.35,319.04 173.64,319.80 175.94,320.55 178.23,321.30 180.52,322.05 182.82,322.81 185.11,323.56 187.40,324.31 189.69,325.06 191.99,325.82 194.28,326.57 196.57,327.32 198.87,328.08 201.16,328.83 203.45,329.58 205.74,330.33 208.04,331.09 210.33,331.84 212.62,332.59 214.92,333.34 217.21,334.10 219.50,334.85 221.79,335.60 224.09,336.36 226.38,337.11 228.67,337.86 230.97,338.61 233.26,339.37 235.55,340.12 237.84,340.87 240.14,341.62 242.43,342.38 244.72,343.13 247.02,343.88 "
       style="stroke-width: 2.13; stroke: #BEBEBE; stroke-linecap: butt;"
       id="polyline59" />
    <circle
       cx="65.88"
       cy="276.09"
       r="4.62"
       style="stroke-width: 0.71; stroke: #A6CEE3; fill: #A6CEE3;"
       id="circle61" />
    <circle
       cx="65.88"
       cy="245.96"
       r="4.62"
       style="stroke-width: 0.71; stroke: #1F78B4; fill: #1F78B4;"
       id="circle63" />
    <circle
       cx="68.71"
       cy="347.51"
       r="4.62"
       style="stroke-width: 0.71; stroke: #B2DF8A; fill: #B2DF8A;"
       id="circle65" />
    <circle
       cx="68.71"
       cy="247.51"
       r="4.62"
       style="stroke-width: 0.71; stroke: #33A02C; fill: #33A02C;"
       id="circle67" />
    <circle
       cx="130.47"
       cy="362.69"
       r="4.62"
       style="stroke-width: 0.71; stroke: #FB9A99; fill: #FB9A99;"
       id="circle69" />
    <circle
       cx="130.47"
       cy="282.73"
       r="4.62"
       style="stroke-width: 0.71; stroke: #E31A1C; fill: #E31A1C;"
       id="circle71" />
    <circle
       cx="243.68"
       cy="368.60"
       r="4.62"
       style="stroke-width: 0.71; stroke: #FDBF6F; fill: #FDBF6F;"
       id="circle73" />
    <circle
       cx="243.68"
       cy="363.94"
       r="4.62"
       style="stroke-width: 0.71; stroke: #FF7F00; fill: #FF7F00;"
       id="circle75" />
    <circle
       cx="247.02"
       cy="327.06"
       r="4.62"
       style="stroke-width: 0.71; stroke: #CAB2D6; fill: #CAB2D6;"
       id="circle77" />
    <circle
       cx="247.02"
       cy="302.04"
       r="4.62"
       style="stroke-width: 0.71; stroke: #6A3D9A; fill: #6A3D9A;"
       id="circle79" />
  </g>
  <g
     clip-path="url(#cpMC4wMHw0NzUuMjB8MC4wMHw1NzYuMDA=)"
     id="g83" />
  <defs
     id="defs88">
    <clipPath
       id="cpNTYuODJ8MjU2LjA3fDM4NS42OHw1MzcuNTk=">
      <rect
         x="56.82"
         y="385.68"
         width="199.25"
         height="151.92"
         id="rect85" />
    </clipPath>
  </defs>
  <g
     clip-path="url(#cpNTYuODJ8MjU2LjA3fDM4NS42OHw1MzcuNTk=)"
     id="g116">
    <rect
       x="56.82"
       y="385.68"
       width="199.25"
       height="151.92"
       style="stroke-width: 1.07; fill: #FFFFFF;"
       id="rect90" />
    <line
       x1="56.82"
       y1="415.60"
       x2="256.07"
       y2="415.60"
       style="stroke-width: 1.07; stroke-dasharray: 5.69,5.69; stroke-linecap: butt;"
       id="line92" />
    <polyline
       points="65.88,498.45 68.17,497.52 70.47,496.58 72.76,495.65 75.05,494.72 77.34,493.78 79.64,492.85 81.93,491.92 84.22,490.98 86.52,490.05 88.81,489.12 91.10,488.18 93.39,487.25 95.69,486.31 97.98,485.38 100.27,484.45 102.57,483.51 104.86,482.58 107.15,481.65 109.44,480.71 111.74,479.78 114.03,478.85 116.32,477.91 118.62,476.98 120.91,476.04 123.20,475.11 125.49,474.18 127.79,473.24 130.08,472.31 132.37,471.38 134.67,470.44 136.96,469.51 139.25,468.57 141.54,467.64 143.84,466.71 146.13,465.77 148.42,464.84 150.72,463.91 153.01,462.97 155.30,462.04 157.59,461.11 159.89,460.17 162.18,459.24 164.47,458.30 166.77,457.37 169.06,456.44 171.35,455.50 173.64,454.57 175.94,453.64 178.23,452.70 180.52,451.77 182.82,450.84 185.11,449.90 187.40,448.97 189.69,448.03 191.99,447.10 194.28,446.17 196.57,445.23 198.87,444.30 201.16,443.37 203.45,442.43 205.74,441.50 208.04,440.57 210.33,439.63 212.62,438.70 214.92,437.76 217.21,436.83 219.50,435.90 221.79,434.96 224.09,434.03 226.38,433.10 228.67,432.16 230.97,431.23 233.26,430.29 235.55,429.36 237.84,428.43 240.14,427.49 242.43,426.56 244.72,425.63 247.02,424.69 "
       style="stroke-width: 2.13; stroke: #BEBEBE; stroke-linecap: butt;"
       id="polyline94" />
    <circle
       cx="65.88"
       cy="503.95"
       r="4.62"
       style="stroke-width: 0.71; stroke: #A6CEE3; fill: #A6CEE3;"
       id="circle96" />
    <circle
       cx="65.88"
       cy="472.21"
       r="4.62"
       style="stroke-width: 0.71; stroke: #1F78B4; fill: #1F78B4;"
       id="circle98" />
    <circle
       cx="68.71"
       cy="514.39"
       r="4.62"
       style="stroke-width: 0.71; stroke: #B2DF8A; fill: #B2DF8A;"
       id="circle100" />
    <circle
       cx="68.71"
       cy="460.74"
       r="4.62"
       style="stroke-width: 0.71; stroke: #33A02C; fill: #33A02C;"
       id="circle102" />
    <circle
       cx="130.47"
       cy="517.60"
       r="4.62"
       style="stroke-width: 0.71; stroke: #FB9A99; fill: #FB9A99;"
       id="circle104" />
    <circle
       cx="130.47"
       cy="488.41"
       r="4.62"
       style="stroke-width: 0.71; stroke: #E31A1C; fill: #E31A1C;"
       id="circle106" />
    <circle
       cx="243.68"
       cy="411.02"
       r="4.62"
       style="stroke-width: 0.71; stroke: #FDBF6F; fill: #FDBF6F;"
       id="circle108" />
    <circle
       cx="243.68"
       cy="452.05"
       r="4.62"
       style="stroke-width: 0.71; stroke: #FF7F00; fill: #FF7F00;"
       id="circle110" />
    <circle
       cx="247.02"
       cy="395.12"
       r="4.62"
       style="stroke-width: 0.71; stroke: #CAB2D6; fill: #CAB2D6;"
       id="circle112" />
    <circle
       cx="247.02"
       cy="421.80"
       r="4.62"
       style="stroke-width: 0.71; stroke: #6A3D9A; fill: #6A3D9A;"
       id="circle114" />
  </g>
  <g
     clip-path="url(#cpMC4wMHw0NzUuMjB8MC4wMHw1NzYuMDA=)"
     id="g118" />
  <defs
     id="defs123">
    <clipPath
       id="cpMjcwLjQ3fDQ2OS43Mnw2Ny40NHwyMTkuMzY=">
      <rect
         x="270.47"
         y="67.44"
         width="199.25"
         height="151.92"
         id="rect120" />
    </clipPath>
  </defs>
  <g
     clip-path="url(#cpMjcwLjQ3fDQ2OS43Mnw2Ny40NHwyMTkuMzY=)"
     id="g159">
    <rect
       x="270.47"
       y="67.44"
       width="199.25"
       height="151.92"
       style="stroke-width: 1.07; fill: #FFFFFF;"
       id="rect125" />
    <line
       x1="270.47"
       y1="155.39"
       x2="469.72"
       y2="155.39"
       style="stroke-width: 1.07; stroke-dasharray: 5.69,5.69; stroke-linecap: butt;"
       id="line127" />
    <polyline
       points="460.66,212.45 355.28,201.74 "
       style="stroke-width: 1.07; stroke: #1F78B4; stroke-linecap: butt;"
       id="polyline129" />
    <polyline
       points="350.28,172.83 279.53,193.28 "
       style="stroke-width: 1.07; stroke: #33A02C; stroke-linecap: butt;"
       id="polyline131" />
    <polyline
       points="376.66,138.73 319.35,194.65 "
       style="stroke-width: 1.07; stroke: #E31A1C; stroke-linecap: butt;"
       id="polyline133" />
    <polyline
       points="375.12,74.34 368.27,82.65 "
       style="stroke-width: 1.07; stroke: #FF7F00; stroke-linecap: butt;"
       id="polyline135" />
    <polyline
       points="411.05,96.16 370.89,126.38 "
       style="stroke-width: 1.07; stroke: #6A3D9A; stroke-linecap: butt;"
       id="polyline137" />
    <circle
       cx="460.66"
       cy="212.45"
       r="4.62"
       style="stroke-width: 0.71; stroke: #A6CEE3; fill: #A6CEE3;"
       id="circle139" />
    <circle
       cx="355.28"
       cy="201.74"
       r="4.62"
       style="stroke-width: 0.71; stroke: #1F78B4; fill: #1F78B4;"
       id="circle141" />
    <circle
       cx="350.28"
       cy="172.83"
       r="4.62"
       style="stroke-width: 0.71; stroke: #B2DF8A; fill: #B2DF8A;"
       id="circle143" />
    <circle
       cx="279.53"
       cy="193.28"
       r="4.62"
       style="stroke-width: 0.71; stroke: #33A02C; fill: #33A02C;"
       id="circle145" />
    <circle
       cx="376.66"
       cy="138.73"
       r="4.62"
       style="stroke-width: 0.71; stroke: #FB9A99; fill: #FB9A99;"
       id="circle147" />
    <circle
       cx="319.35"
       cy="194.65"
       r="4.62"
       style="stroke-width: 0.71; stroke: #E31A1C; fill: #E31A1C;"
       id="circle149" />
    <circle
       cx="375.12"
       cy="74.34"
       r="4.62"
       style="stroke-width: 0.71; stroke: #FDBF6F; fill: #FDBF6F;"
       id="circle151" />
    <circle
       cx="368.27"
       cy="82.65"
       r="4.62"
       style="stroke-width: 0.71; stroke: #FF7F00; fill: #FF7F00;"
       id="circle153" />
    <circle
       cx="411.05"
       cy="96.16"
       r="4.62"
       style="stroke-width: 0.71; stroke: #CAB2D6; fill: #CAB2D6;"
       id="circle155" />
    <circle
       cx="370.89"
       cy="126.38"
       r="4.62"
       style="stroke-width: 0.71; stroke: #6A3D9A; fill: #6A3D9A;"
       id="circle157" />
  </g>
  <g
     clip-path="url(#cpMC4wMHw0NzUuMjB8MC4wMHw1NzYuMDA=)"
     id="g161" />
  <defs
     id="defs166">
    <clipPath
       id="cpMjcwLjQ3fDQ2OS43MnwyMjYuNTZ8Mzc4LjQ4">
      <rect
         x="270.47"
         y="226.56"
         width="199.25"
         height="151.92"
         id="rect163" />
    </clipPath>
  </defs>
  <g
     clip-path="url(#cpMjcwLjQ3fDQ2OS43MnwyMjYuNTZ8Mzc4LjQ4)"
     id="g202">
    <rect
       x="270.47"
       y="226.56"
       width="199.25"
       height="151.92"
       style="stroke-width: 1.07; fill: #FFFFFF;"
       id="rect168" />
    <line
       x1="270.47"
       y1="256.48"
       x2="469.72"
       y2="256.48"
       style="stroke-width: 1.07; stroke-dasharray: 5.69,5.69; stroke-linecap: butt;"
       id="line170" />
    <polyline
       points="460.66,276.09 355.28,245.96 "
       style="stroke-width: 1.07; stroke: #1F78B4; stroke-linecap: butt;"
       id="polyline172" />
    <polyline
       points="350.28,347.51 279.53,247.51 "
       style="stroke-width: 1.07; stroke: #33A02C; stroke-linecap: butt;"
       id="polyline174" />
    <polyline
       points="376.66,362.69 319.35,282.73 "
       style="stroke-width: 1.07; stroke: #E31A1C; stroke-linecap: butt;"
       id="polyline176" />
    <polyline
       points="375.12,368.60 368.27,363.94 "
       style="stroke-width: 1.07; stroke: #FF7F00; stroke-linecap: butt;"
       id="polyline178" />
    <polyline
       points="411.05,327.06 370.89,302.04 "
       style="stroke-width: 1.07; stroke: #6A3D9A; stroke-linecap: butt;"
       id="polyline180" />
    <circle
       cx="460.66"
       cy="276.09"
       r="4.62"
       style="stroke-width: 0.71; stroke: #A6CEE3; fill: #A6CEE3;"
       id="circle182" />
    <circle
       cx="355.28"
       cy="245.96"
       r="4.62"
       style="stroke-width: 0.71; stroke: #1F78B4; fill: #1F78B4;"
       id="circle184" />
    <circle
       cx="350.28"
       cy="347.51"
       r="4.62"
       style="stroke-width: 0.71; stroke: #B2DF8A; fill: #B2DF8A;"
       id="circle186" />
    <circle
       cx="279.53"
       cy="247.51"
       r="4.62"
       style="stroke-width: 0.71; stroke: #33A02C; fill: #33A02C;"
       id="circle188" />
    <circle
       cx="376.66"
       cy="362.69"
       r="4.62"
       style="stroke-width: 0.71; stroke: #FB9A99; fill: #FB9A99;"
       id="circle190" />
    <circle
       cx="319.35"
       cy="282.73"
       r="4.62"
       style="stroke-width: 0.71; stroke: #E31A1C; fill: #E31A1C;"
       id="circle192" />
    <circle
       cx="375.12"
       cy="368.60"
       r="4.62"
       style="stroke-width: 0.71; stroke: #FDBF6F; fill: #FDBF6F;"
       id="circle194" />
    <circle
       cx="368.27"
       cy="363.94"
       r="4.62"
       style="stroke-width: 0.71; stroke: #FF7F00; fill: #FF7F00;"
       id="circle196" />
    <circle
       cx="411.05"
       cy="327.06"
       r="4.62"
       style="stroke-width: 0.71; stroke: #CAB2D6; fill: #CAB2D6;"
       id="circle198" />
    <circle
       cx="370.89"
       cy="302.04"
       r="4.62"
       style="stroke-width: 0.71; stroke: #6A3D9A; fill: #6A3D9A;"
       id="circle200" />
  </g>
  <g
     clip-path="url(#cpMC4wMHw0NzUuMjB8MC4wMHw1NzYuMDA=)"
     id="g204" />
  <defs
     id="defs209">
    <clipPath
       id="cpMjcwLjQ3fDQ2OS43MnwzODUuNjh8NTM3LjU5">
      <rect
         x="270.47"
         y="385.68"
         width="199.25"
         height="151.92"
         id="rect206" />
    </clipPath>
  </defs>
  <g
     clip-path="url(#cpMjcwLjQ3fDQ2OS43MnwzODUuNjh8NTM3LjU5)"
     id="g245">
    <rect
       x="270.47"
       y="385.68"
       width="199.25"
       height="151.92"
       style="stroke-width: 1.07; fill: #FFFFFF;"
       id="rect211" />
    <line
       x1="270.47"
       y1="415.60"
       x2="469.72"
       y2="415.60"
       style="stroke-width: 1.07; stroke-dasharray: 5.69,5.69; stroke-linecap: butt;"
       id="line213" />
    <polyline
       points="460.66,503.95 355.28,472.21 "
       style="stroke-width: 1.07; stroke: #1F78B4; stroke-linecap: butt;"
       id="polyline215" />
    <polyline
       points="350.28,514.39 279.53,460.74 "
       style="stroke-width: 1.07; stroke: #33A02C; stroke-linecap: butt;"
       id="polyline217" />
    <polyline
       points="376.66,517.60 319.35,488.41 "
       style="stroke-width: 1.07; stroke: #E31A1C; stroke-linecap: butt;"
       id="polyline219" />
    <polyline
       points="375.12,411.02 368.27,452.05 "
       style="stroke-width: 1.07; stroke: #FF7F00; stroke-linecap: butt;"
       id="polyline221" />
    <polyline
       points="411.05,395.12 370.89,421.80 "
       style="stroke-width: 1.07; stroke: #6A3D9A; stroke-linecap: butt;"
       id="polyline223" />
    <circle
       cx="460.66"
       cy="503.95"
       r="4.62"
       style="stroke-width: 0.71; stroke: #A6CEE3; fill: #A6CEE3;"
       id="circle225" />
    <circle
       cx="355.28"
       cy="472.21"
       r="4.62"
       style="stroke-width: 0.71; stroke: #1F78B4; fill: #1F78B4;"
       id="circle227" />
    <circle
       cx="350.28"
       cy="514.39"
       r="4.62"
       style="stroke-width: 0.71; stroke: #B2DF8A; fill: #B2DF8A;"
       id="circle229" />
    <circle
       cx="279.53"
       cy="460.74"
       r="4.62"
       style="stroke-width: 0.71; stroke: #33A02C; fill: #33A02C;"
       id="circle231" />
    <circle
       cx="376.66"
       cy="517.60"
       r="4.62"
       style="stroke-width: 0.71; stroke: #FB9A99; fill: #FB9A99;"
       id="circle233" />
    <circle
       cx="319.35"
       cy="488.41"
       r="4.62"
       style="stroke-width: 0.71; stroke: #E31A1C; fill: #E31A1C;"
       id="circle235" />
    <circle
       cx="375.12"
       cy="411.02"
       r="4.62"
       style="stroke-width: 0.71; stroke: #FDBF6F; fill: #FDBF6F;"
       id="circle237" />
    <circle
       cx="368.27"
       cy="452.05"
       r="4.62"
       style="stroke-width: 0.71; stroke: #FF7F00; fill: #FF7F00;"
       id="circle239" />
    <circle
       cx="411.05"
       cy="395.12"
       r="4.62"
       style="stroke-width: 0.71; stroke: #CAB2D6; fill: #CAB2D6;"
       id="circle241" />
    <circle
       cx="370.89"
       cy="421.80"
       r="4.62"
       style="stroke-width: 0.71; stroke: #6A3D9A; fill: #6A3D9A;"
       id="circle243" />
  </g>
  <g
     clip-path="url(#cpMC4wMHw0NzUuMjB8MC4wMHw1NzYuMDA=)"
     id="g247" />
  <defs
     id="defs252">
    <clipPath
       id="cpNTYuODJ8MjU2LjA3fDU1My41MXw1NzAuNTI=">
      <rect
         x="56.82"
         y="553.51"
         width="199.25"
         height="17.01"
         id="rect249" />
    </clipPath>
  </defs>
  <g
     clip-path="url(#cpNTYuODJ8MjU2LjA3fDU1My41MXw1NzAuNTI=)"
     id="g256">
    <text
       x="156.45"
       y="565.22"
       text-anchor="middle"
       style="font-size: 8.80px;fill: #1A1A1A; font-family: &quot;Arial&quot;;"
       id="text254">Phylogenetic distance (mutations/site)</text>
  </g>
  <g
     clip-path="url(#cpMC4wMHw0NzUuMjB8MC4wMHw1NzYuMDA=)"
     id="g258" />
  <defs
     id="defs263">
    <clipPath
       id="cpMjcwLjQ3fDQ2OS43Mnw1NTMuNTF8NTcwLjUy">
      <rect
         x="270.47"
         y="553.51"
         width="199.25"
         height="17.01"
         id="rect260" />
    </clipPath>
  </defs>
  <g
     clip-path="url(#cpMjcwLjQ3fDQ2OS43Mnw1NTMuNTF8NTcwLjUy)"
     id="g267">
    <text
       x="370.10"
       y="565.22"
       text-anchor="middle"
       style="font-size: 8.80px;fill: #1A1A1A; font-family: &quot;Arial&quot;;"
       id="text265">Style length (mm)</text>
  </g>
  <g
     clip-path="url(#cpMC4wMHw0NzUuMjB8MC4wMHw1NzYuMDA=)"
     id="g269" />
  <defs
     id="defs274">
    <clipPath
       id="cpNS40OHwzMS45OXw2Ny40NHwyMTkuMzY=">
      <rect
         x="5.48"
         y="67.44"
         width="26.52"
         height="151.92"
         id="rect271" />
    </clipPath>
  </defs>
  <g
     clip-path="url(#cpNS40OHwzMS45OXw2Ny40NHwyMTkuMzY=)"
     id="g280">
    <text
       transform="translate(17.19,143.40) rotate(-90)"
       text-anchor="middle"
       style="font-size: 8.80px;fill: #1A1A1A; font-family: &quot;Arial&quot;;"
       id="text276">Reproductive isolation</text>
    <text
       transform="translate(26.70,143.40) rotate(-90)"
       text-anchor="middle"
       style="font-size: 8.80px;fill: #1A1A1A; font-family: &quot;Arial&quot;;"
       id="text278">(heterosis ↔ complete isolation)</text>
  </g>
  <g
     clip-path="url(#cpMC4wMHw0NzUuMjB8MC4wMHw1NzYuMDA=)"
     id="g282" />
  <defs
     id="defs287">
    <clipPath
       id="cpNS40OHwzMS45OXwyMjYuNTZ8Mzc4LjQ4">
      <rect
         x="5.48"
         y="226.56"
         width="26.52"
         height="151.92"
         id="rect284" />
    </clipPath>
  </defs>
  <g
     clip-path="url(#cpNS40OHwzMS45OXwyMjYuNTZ8Mzc4LjQ4)"
     id="g293">
    <text
       transform="translate(17.19,302.52) rotate(-90)"
       text-anchor="middle"
       style="font-size: 8.80px;fill: #1A1A1A; font-family: &quot;Arial&quot;;"
       id="text289">Proportion of hybrid plants</text>
    <text
       transform="translate(26.70,302.52) rotate(-90)"
       text-anchor="middle"
       style="font-size: 8.80px;fill: #1A1A1A; font-family: &quot;Arial&quot;;"
       id="text291">(observed)</text>
  </g>
  <g
     clip-path="url(#cpMC4wMHw0NzUuMjB8MC4wMHw1NzYuMDA=)"
     id="g295" />
  <defs
     id="defs300">
    <clipPath
       id="cpNS40OHwzMS45OXwzODUuNjh8NTM3LjU5">
      <rect
         x="5.48"
         y="385.68"
         width="26.52"
         height="151.92"
         id="rect297" />
    </clipPath>
  </defs>
  <g
     clip-path="url(#cpNS40OHwzMS45OXwzODUuNjh8NTM3LjU5)"
     id="g306">
    <text
       transform="translate(17.19,461.63) rotate(-90)"
       text-anchor="middle"
       style="font-size: 8.80px;fill: #1A1A1A; font-family: &quot;Arial&quot;;"
       id="text302">Proportion of hybrid zygotes</text>
    <text
       transform="translate(26.70,461.63) rotate(-90)"
       text-anchor="middle"
       style="font-size: 8.80px;fill: #1A1A1A; font-family: &quot;Arial&quot;;"
       id="text304">(estimated)</text>
  </g>
  <g
     clip-path="url(#cpMC4wMHw0NzUuMjB8MC4wMHw1NzYuMDA=)"
     id="g386">
    <text
       x="59.169998"
       y="548.94"
       text-anchor="middle"
       style="font-size:8.8px;font-family:Arial"
       id="text308">0.010</text>
    <text
       x="120.49"
       y="548.94"
       text-anchor="middle"
       style="font-size:8.8px;font-family:Arial"
       id="text310">0.015</text>
    <text
       x="181.81"
       y="548.94"
       text-anchor="middle"
       style="font-size:8.8px;font-family:Arial"
       id="text312">0.020</text>
    <text
       x="243.13"
       y="548.94"
       text-anchor="middle"
       style="font-size:8.8px;font-family:Arial"
       id="text314">0.025</text>
    <text
       x="276.56"
       y="548.94"
       text-anchor="middle"
       style="font-size:8.8px;font-family:Arial"
       id="text316">2</text>
    <text
       x="316.63"
       y="548.94"
       text-anchor="middle"
       style="font-size:8.8px;font-family:Arial"
       id="text318">3</text>
    <text
       x="356.69"
       y="548.94"
       text-anchor="middle"
       style="font-size:8.8px;font-family:Arial"
       id="text320">4</text>
    <text
       x="396.75"
       y="548.94"
       text-anchor="middle"
       style="font-size:8.8px;font-family:Arial"
       id="text322">5</text>
    <text
       x="436.82001"
       y="548.94"
       text-anchor="middle"
       style="font-size:8.8px;font-family:Arial"
       id="text324">6</text>
    <text
       x="51.889999"
       y="200.12"
       text-anchor="end"
       style="font-size:8.8px;font-family:Arial"
       id="text326">-0.5</text>
    <text
       x="51.889999"
       y="158.60001"
       text-anchor="end"
       style="font-size:8.8px;font-family:Arial"
       id="text328">0.0</text>
    <text
       x="51.889999"
       y="117.08"
       text-anchor="end"
       style="font-size:8.8px;font-family:Arial"
       id="text330">0.5</text>
    <text
       x="51.889999"
       y="75.57"
       text-anchor="end"
       style="font-size:8.8px;font-family:Arial"
       id="text332">1.0</text>
    <text
       x="51.889999"
       y="374.78"
       text-anchor="end"
       style="font-size:8.8px;font-family:Arial"
       id="text334">0.0</text>
    <text
       x="51.889999"
       y="259.69"
       text-anchor="end"
       style="font-size:8.8px;font-family:Arial"
       id="text336">0.5</text>
    <text
       x="51.889999"
       y="533.90002"
       text-anchor="end"
       style="font-size:8.8px;font-family:Arial"
       id="text338">0.0</text>
    <text
       x="51.889999"
       y="418.81"
       text-anchor="end"
       style="font-size:8.8px;font-family:Arial"
       id="text340">0.5</text>
    <text
       x="47.02"
       y="29.049999"
       style="font-size:11px;font-family:Arial"
       id="text342">Maternal</text>
    <text
       x="60.65707"
       y="79.350525"
       style="font-size:11px;font-family:Arial;white-space:pre"
       id="text342-3">A</text>
    <text
       x="274.30704"
       y="79.350525"
       style="font-size:11px;font-family:Arial;white-space:pre"
       id="text342-3-6">B</text>
    <text
       x="60.65707"
       y="238.47049"
       style="font-size:11px;font-family:Arial;white-space:pre"
       id="text342-3-7">C</text>
    <text
       x="47.02"
       y="40.93"
       style="font-size:11px;font-family:Arial"
       id="text344">species</text>
    <circle
       cx="109.54"
       cy="19.6"
       r="4.6199999"
       style="fill:#a6cee3;stroke:#a6cee3;stroke-width:0.71"
       id="circle346" />
    <circle
       cx="109.54"
       cy="42.360001"
       r="4.6199999"
       style="fill:#1f78b4;stroke:#1f78b4;stroke-width:0.71"
       id="circle348" />
    <circle
       cx="179.3"
       cy="19.6"
       r="4.6199999"
       style="fill:#b2df8a;stroke:#b2df8a;stroke-width:0.71"
       id="circle350" />
    <circle
       cx="179.3"
       cy="42.360001"
       r="4.6199999"
       style="fill:#33a02c;stroke:#33a02c;stroke-width:0.71"
       id="circle352" />
    <circle
       cx="259.35001"
       cy="19.6"
       r="4.6199999"
       style="fill:#fb9a99;stroke:#fb9a99;stroke-width:0.71"
       id="circle354" />
    <circle
       cx="259.35001"
       cy="42.360001"
       r="4.6199999"
       style="fill:#e31a1c;stroke:#e31a1c;stroke-width:0.71"
       id="circle356" />
    <circle
       cx="340.81"
       cy="19.6"
       r="4.6199999"
       style="fill:#fdbf6f;stroke:#fdbf6f;stroke-width:0.71"
       id="circle358" />
    <circle
       cx="340.81"
       cy="42.360001"
       r="4.6199999"
       style="fill:#ff7f00;stroke:#ff7f00;stroke-width:0.71"
       id="circle360" />
    <circle
       cx="432.79999"
       cy="19.6"
       r="4.6199999"
       style="fill:#cab2d6;stroke:#cab2d6;stroke-width:0.71"
       id="circle362" />
    <circle
       cx="432.79999"
       cy="42.360001"
       r="4.6199999"
       style="fill:#6a3d9a;stroke:#6a3d9a;stroke-width:0.71"
       id="circle364" />
    <text
       x="123.66"
       y="22.809999"
       style="font-size:8.8px;font-family:Arial"
       id="text366">menziesii</text>
    <text
       x="123.66"
       y="45.57"
       style="font-size:8.8px;font-family:Arial"
       id="text368">salicaria</text>
    <text
       x="193.42"
       y="22.809999"
       style="font-size:8.8px;font-family:Arial"
       id="text370">lydgatei</text>
    <text
       x="193.42"
       y="45.57"
       style="font-size:8.8px;font-family:Arial"
       id="text372">sarmentosa</text>
    <text
       x="273.47"
       y="22.809999"
       style="font-size:8.8px;font-family:Arial"
       id="text374">stellarioides</text>
    <text
       x="273.47"
       y="45.57"
       style="font-size:8.8px;font-family:Arial"
       id="text376">spergulina</text>
    <text
       x="354.92999"
       y="22.809999"
       style="font-size:8.8px;font-family:Arial"
       id="text378">membranacea</text>
    <text
       x="354.92999"
       y="45.57"
       style="font-size:8.8px;font-family:Arial"
       id="text380">kauaiensis</text>
    <text
       x="446.92001"
       y="22.809999"
       style="font-size:8.8px;font-family:Arial"
       id="text382">kaalae</text>
    <text
       x="446.92001"
       y="45.57"
       style="font-size:8.8px;font-family:Arial"
       id="text384">hookeri</text>
  </g>
  <text
     x="274.30704"
     y="238.47049"
     style="font-size:11px;font-family:Arial;white-space:pre"
     id="text342-3-3">D</text>
  <text
     x="60.65707"
     y="397.59052"
     style="font-size:11px;font-family:Arial;white-space:pre"
     id="text342-3-5">E</text>
  <text
     x="274.30704"
     y="397.59052"
     style="font-size:11px;font-family:Arial;white-space:pre"
     id="text342-3-62">F</text>
</svg>
